G04 start of page 2 for group 0 idx 0 *
G04 Title: (unknown), top *
G04 Creator: pcb 20140316 *
G04 CreationDate: Sat 21 Jan 2017 09:52:20 PM GMT UTC *
G04 For: david *
G04 Format: Gerber/RS-274X *
G04 PCB-Dimensions (mil): 708.66 1968.50 *
G04 PCB-Coordinate-Origin: lower left *
%MOIN*%
%FSLAX25Y25*%
%LNGTL*%
%ADD22C,0.0520*%
%ADD21C,0.0350*%
%ADD20C,0.1024*%
%ADD19C,0.2008*%
%ADD18R,0.0512X0.0512*%
%ADD17R,0.0200X0.0200*%
%ADD16R,0.0315X0.0315*%
%ADD15C,0.0710*%
%ADD14C,0.0600*%
%ADD13C,0.1181*%
%ADD12C,0.0100*%
%ADD11C,0.0250*%
G54D11*X16535Y71457D02*X12992Y67913D01*
X28505Y71457D02*X16535D01*
X12992Y67913D02*Y68307D01*
X35827Y71457D02*X59055Y94685D01*
X35591Y71457D02*X35827D01*
X37559Y69488D02*X35591Y71457D01*
X37559Y67520D02*Y69488D01*
X33819Y63780D02*X37559Y67520D01*
X31102Y63780D02*X33819D01*
X56969Y47913D02*X41102Y63780D01*
X11811Y69094D02*X12992Y67913D01*
X13898Y57913D02*X21417Y50394D01*
X12953Y57913D02*X13898D01*
X12992D02*X15085D01*
X11811Y94685D02*Y69094D01*
X21654Y18701D02*X5906Y34449D01*
Y40827D02*X12992Y47913D01*
X5906Y34449D02*Y40827D01*
G54D12*X12756Y37362D02*X13150Y37756D01*
X12756Y35394D02*Y37362D01*
X13780Y37126D02*X12992Y37913D01*
X25906Y22244D02*X12756Y35394D01*
G54D11*X21417Y34876D02*X28029Y28265D01*
X21417Y50394D02*Y34876D01*
X27933Y28360D02*X28130Y28163D01*
G54D12*X27862Y36774D02*Y28431D01*
X28350Y27944D01*
X31102Y38189D02*X29277D01*
X27862Y36774D01*
G54D11*X57874Y47913D02*X56969D01*
G54D13*X59055Y180118D02*X55118Y184055D01*
X59055Y142717D02*Y180118D01*
X11811Y142717D02*Y180118D01*
X15748Y184055D01*
X35433D02*Y86811D01*
G54D11*X43071Y7722D02*X43130Y7663D01*
X39370Y18701D02*X21654D01*
G54D12*X36772Y22244D02*X25906D01*
X38130Y23602D02*X36772Y22244D01*
X38130Y28163D02*Y23602D01*
G54D11*X43071Y15000D02*X39370Y18701D01*
X43071Y7722D02*Y15000D01*
G54D12*X28130Y7663D02*Y4043D01*
X30870Y1304D01*
X46375D01*
X47468Y2396D01*
X47450Y21108D02*Y2379D01*
X46841Y1770D01*
X48124Y28163D02*X57874Y37913D01*
X43130Y28163D02*X48124D01*
X55190Y24693D02*X51034D01*
X47450Y21108D01*
X65060Y35493D02*Y40960D01*
X62874Y43146D01*
X46060D02*X41102Y38189D01*
X62874Y43146D02*X46060D01*
X62083Y24693D02*Y32642D01*
X65060Y35619D01*
G54D14*X12992Y67913D03*
Y57913D03*
Y47913D03*
G54D15*X11811Y94685D03*
Y142717D03*
G54D14*X57874Y67913D03*
Y57913D03*
Y47913D03*
Y37913D03*
G54D15*X59055Y94685D03*
Y142717D03*
G54D14*X12992Y37913D03*
G54D15*X55118Y184055D03*
X35433D03*
Y86811D03*
X15748Y184055D03*
G54D16*X41102Y38583D02*Y37795D01*
X31102Y38583D02*Y37795D01*
G54D17*X38130Y31413D02*Y24913D01*
X33130Y31413D02*Y24913D01*
G54D18*X28505Y71850D02*Y71064D01*
X35591Y71850D02*Y71064D01*
G54D16*X41102Y64173D02*Y63386D01*
X31102Y64173D02*Y63386D01*
G54D17*X43130Y10913D02*Y4413D01*
Y31413D02*Y24913D01*
G54D18*X55190Y25086D02*Y24300D01*
X62276Y25086D02*Y24300D01*
G54D17*X28130Y10913D02*Y4413D01*
X33130Y10913D02*Y4413D01*
X38130Y10913D02*Y4413D01*
X28130Y31413D02*Y24913D01*
G54D19*X59055Y10827D03*
X11811D03*
G54D20*G54D21*G54D22*G54D21*G54D22*G54D21*G54D22*M02*
