G04 start of page 6 for group -4063 idx -4063 *
G04 Title: (unknown), componentmask *
G04 Creator: pcb 20140316 *
G04 CreationDate: Sat 21 Jan 2017 09:52:20 PM GMT UTC *
G04 For: david *
G04 Format: Gerber/RS-274X *
G04 PCB-Dimensions (mil): 708.66 1968.50 *
G04 PCB-Coordinate-Origin: lower left *
%MOIN*%
%FSLAX25Y25*%
%LNGTS*%
%ADD38R,0.0572X0.0572*%
%ADD37R,0.0300X0.0300*%
%ADD36R,0.0415X0.0415*%
%ADD35C,0.0770*%
%ADD34C,0.0660*%
G54D34*X12992Y67913D03*
Y57913D03*
Y47913D03*
G54D35*X11811Y94685D03*
Y142717D03*
G54D34*X57874Y67913D03*
Y57913D03*
Y47913D03*
Y37913D03*
G54D35*X59055Y94685D03*
Y142717D03*
G54D34*X12992Y37913D03*
G54D35*X55118Y184055D03*
X35433D03*
Y86811D03*
X15748Y184055D03*
G54D36*X41102Y38583D02*Y37795D01*
X31102Y38583D02*Y37795D01*
G54D37*X38130Y31413D02*Y24913D01*
X33130Y31413D02*Y24913D01*
G54D38*X28505Y71850D02*Y71064D01*
X35591Y71850D02*Y71064D01*
G54D36*X41102Y64173D02*Y63386D01*
X31102Y64173D02*Y63386D01*
G54D37*X43130Y10913D02*Y4413D01*
Y31413D02*Y24913D01*
G54D38*X55190Y25086D02*Y24300D01*
X62276Y25086D02*Y24300D01*
G54D37*X28130Y10913D02*Y4413D01*
X33130Y10913D02*Y4413D01*
X38130Y10913D02*Y4413D01*
X28130Y31413D02*Y24913D01*
M02*
