G04 start of page 8 for group -4079 idx -4079 *
G04 Title: (unknown), topsilk *
G04 Creator: pcb 20140316 *
G04 CreationDate: Sat 21 Jan 2017 09:52:20 PM GMT UTC *
G04 For: david *
G04 Format: Gerber/RS-274X *
G04 PCB-Dimensions (mil): 708.66 1968.50 *
G04 PCB-Coordinate-Origin: lower left *
%MOIN*%
%FSLAX25Y25*%
%LNGTO*%
%ADD43C,0.0080*%
%ADD42C,0.0250*%
%ADD41C,0.0100*%
G54D41*X24961Y74213D02*Y69094D01*
G54D42*X2953Y76772D02*X32480D01*
X2953Y165354D02*Y76772D01*
X26575D02*X67913D01*
Y165354D02*Y76772D01*
X2953Y165354D02*X67913D01*
G54D43*X31655Y74212D02*X32441D01*
X31655Y68702D02*X32441D01*
G54D41*X26228Y66498D02*Y53498D01*
Y48498D02*Y35498D01*
Y66498D02*X45228D01*
Y35498D01*
X26228D02*X45228D01*
X26228Y48498D02*G75*G03X26228Y53498I0J2500D01*G01*
X26130Y2413D02*X45130D01*
Y33413D02*Y2413D01*
X26130Y33413D02*X45130D01*
X26130Y15413D02*Y2413D01*
Y33413D02*Y20413D01*
Y15413D02*G75*G03X26130Y20413I0J2500D01*G01*
G54D43*X58340Y27448D02*X59126D01*
X58340Y21938D02*X59126D01*
M02*
